<mxfile host="Electron" modified="2023-12-03T13:36:53.509Z" agent="Mozilla/5.0 (Windows NT 10.0; Win64; x64) AppleWebKit/537.36 (KHTML, like Gecko) draw.io/22.1.2 Chrome/114.0.5735.289 Electron/25.9.4 Safari/537.36" etag="rpjvi11ekcS_losMhG8z" version="22.1.2" type="device">
  <diagram name="Page-1" id="dNXR-hKTdnCZOeplXMrT">
    <mxGraphModel dx="1313" dy="2009" grid="1" gridSize="10" guides="1" tooltips="1" connect="1" arrows="1" fold="1" page="1" pageScale="1" pageWidth="1800" pageHeight="1200" math="0" shadow="0">
      <root>
        <mxCell id="0" />
        <mxCell id="1" parent="0" />
        <mxCell id="xIBE9MmWSDMr6PMOZGod-64" value="" style="rounded=0;whiteSpace=wrap;html=1;fillColor=none;dashed=1;" parent="1" vertex="1">
          <mxGeometry x="20" y="90" width="850" height="670" as="geometry" />
        </mxCell>
        <mxCell id="zNM9YORwCRKNAo-Sozhw-19" style="edgeStyle=orthogonalEdgeStyle;rounded=0;orthogonalLoop=1;jettySize=auto;html=1;entryX=0.5;entryY=1;entryDx=0;entryDy=0;" edge="1" parent="1" source="zNM9YORwCRKNAo-Sozhw-8" target="zNM9YORwCRKNAo-Sozhw-14">
          <mxGeometry relative="1" as="geometry" />
        </mxCell>
        <mxCell id="zNM9YORwCRKNAo-Sozhw-8" value="" style="rounded=0;whiteSpace=wrap;html=1;fillColor=none;fontColor=#ffffff;strokeColor=#000000;" vertex="1" parent="1">
          <mxGeometry x="80" y="470" width="260" height="210" as="geometry" />
        </mxCell>
        <mxCell id="zNM9YORwCRKNAo-Sozhw-17" style="edgeStyle=orthogonalEdgeStyle;rounded=0;orthogonalLoop=1;jettySize=auto;html=1;" edge="1" parent="1" source="xIBE9MmWSDMr6PMOZGod-22" target="zNM9YORwCRKNAo-Sozhw-14">
          <mxGeometry relative="1" as="geometry" />
        </mxCell>
        <mxCell id="xIBE9MmWSDMr6PMOZGod-22" value="" style="rounded=0;whiteSpace=wrap;html=1;fillColor=none;fontColor=#ffffff;strokeColor=#000000;" parent="1" vertex="1">
          <mxGeometry x="90" y="130" width="210" height="160" as="geometry" />
        </mxCell>
        <mxCell id="xIBE9MmWSDMr6PMOZGod-13" value="" style="rounded=0;whiteSpace=wrap;html=1;fillColor=none;fontColor=#ffffff;strokeColor=#000000;" parent="1" vertex="1">
          <mxGeometry x="372" y="130" width="180" height="550" as="geometry" />
        </mxCell>
        <mxCell id="xIBE9MmWSDMr6PMOZGod-45" value="&lt;font color=&quot;#000000&quot;&gt;Data Analytics&lt;/font&gt;" style="rounded=0;whiteSpace=wrap;html=1;fillColor=none;fontColor=#ffffff;strokeColor=#000000;" parent="1" vertex="1">
          <mxGeometry x="380.01" y="-60" width="319.99" height="60" as="geometry" />
        </mxCell>
        <mxCell id="UpbluHdFZTf9e7w1jBb8-20" style="edgeStyle=orthogonalEdgeStyle;rounded=0;orthogonalLoop=1;jettySize=auto;html=1;entryX=0;entryY=0.5;entryDx=0;entryDy=0;" parent="1" source="xIBE9MmWSDMr6PMOZGod-53" target="UpbluHdFZTf9e7w1jBb8-19" edge="1">
          <mxGeometry relative="1" as="geometry" />
        </mxCell>
        <mxCell id="UpbluHdFZTf9e7w1jBb8-22" value="View Customer Profile" style="edgeLabel;html=1;align=center;verticalAlign=middle;resizable=0;points=[];" parent="UpbluHdFZTf9e7w1jBb8-20" vertex="1" connectable="0">
          <mxGeometry x="0.4235" y="1" relative="1" as="geometry">
            <mxPoint x="-20" y="16" as="offset" />
          </mxGeometry>
        </mxCell>
        <mxCell id="xIBE9MmWSDMr6PMOZGod-53" value="&lt;font color=&quot;#000000&quot;&gt;Data Collaboration&lt;/font&gt;" style="rounded=0;whiteSpace=wrap;html=1;fillColor=none;fontColor=#ffffff;strokeColor=#000000;" parent="1" vertex="1">
          <mxGeometry x="660" y="134" width="130" height="90" as="geometry" />
        </mxCell>
        <mxCell id="xIBE9MmWSDMr6PMOZGod-57" value="&lt;font color=&quot;#000000&quot;&gt;Customer Privacy and concent Mgmt&lt;/font&gt;" style="rounded=0;whiteSpace=wrap;html=1;fillColor=none;fontColor=#ffffff;strokeColor=#000000;" parent="1" vertex="1">
          <mxGeometry x="670" y="506" width="130" height="74" as="geometry" />
        </mxCell>
        <mxCell id="UpbluHdFZTf9e7w1jBb8-11" value="" style="endArrow=classic;html=1;rounded=0;exitX=0.969;exitY=0.152;exitDx=0;exitDy=0;exitPerimeter=0;entryX=0;entryY=0.5;entryDx=0;entryDy=0;" parent="1" source="zNM9YORwCRKNAo-Sozhw-31" target="xIBE9MmWSDMr6PMOZGod-53" edge="1">
          <mxGeometry width="50" height="50" relative="1" as="geometry">
            <mxPoint x="1030" y="230" as="sourcePoint" />
            <mxPoint x="1080" y="180" as="targetPoint" />
          </mxGeometry>
        </mxCell>
        <mxCell id="UpbluHdFZTf9e7w1jBb8-12" style="edgeStyle=orthogonalEdgeStyle;rounded=0;orthogonalLoop=1;jettySize=auto;html=1;exitX=0.5;exitY=1;exitDx=0;exitDy=0;" parent="1" source="xIBE9MmWSDMr6PMOZGod-53" target="xIBE9MmWSDMr6PMOZGod-53" edge="1">
          <mxGeometry relative="1" as="geometry" />
        </mxCell>
        <mxCell id="UpbluHdFZTf9e7w1jBb8-13" value="" style="endArrow=classic;html=1;rounded=0;exitX=1;exitY=0.75;exitDx=0;exitDy=0;entryX=0;entryY=0.5;entryDx=0;entryDy=0;" parent="1" source="xIBE9MmWSDMr6PMOZGod-13" target="xIBE9MmWSDMr6PMOZGod-57" edge="1">
          <mxGeometry width="50" height="50" relative="1" as="geometry">
            <mxPoint x="1090" y="360" as="sourcePoint" />
            <mxPoint x="1140" y="310" as="targetPoint" />
          </mxGeometry>
        </mxCell>
        <mxCell id="UpbluHdFZTf9e7w1jBb8-14" value="" style="endArrow=classic;html=1;rounded=0;exitX=0.5;exitY=0;exitDx=0;exitDy=0;entryX=0.5;entryY=1;entryDx=0;entryDy=0;" parent="1" source="xIBE9MmWSDMr6PMOZGod-13" target="xIBE9MmWSDMr6PMOZGod-45" edge="1">
          <mxGeometry width="50" height="50" relative="1" as="geometry">
            <mxPoint x="960" y="70" as="sourcePoint" />
            <mxPoint x="1010" y="20" as="targetPoint" />
          </mxGeometry>
        </mxCell>
        <mxCell id="UpbluHdFZTf9e7w1jBb8-16" value="&lt;font color=&quot;#000000&quot;&gt;Loyaly System&lt;/font&gt;" style="rounded=0;whiteSpace=wrap;html=1;fillColor=none;fontColor=#ffffff;strokeColor=#000000;" parent="1" vertex="1">
          <mxGeometry x="1150" y="160" width="130" height="50" as="geometry" />
        </mxCell>
        <mxCell id="UpbluHdFZTf9e7w1jBb8-17" value="" style="endArrow=classic;html=1;rounded=0;entryX=0;entryY=0.5;entryDx=0;entryDy=0;edgeStyle=orthogonalEdgeStyle;" parent="1" source="xIBE9MmWSDMr6PMOZGod-53" target="UpbluHdFZTf9e7w1jBb8-16" edge="1">
          <mxGeometry width="50" height="50" relative="1" as="geometry">
            <mxPoint x="1040" y="360" as="sourcePoint" />
            <mxPoint x="1090" y="310" as="targetPoint" />
          </mxGeometry>
        </mxCell>
        <mxCell id="UpbluHdFZTf9e7w1jBb8-18" value="View Customer Profile" style="edgeLabel;html=1;align=center;verticalAlign=middle;resizable=0;points=[];" parent="UpbluHdFZTf9e7w1jBb8-17" vertex="1" connectable="0">
          <mxGeometry x="0.6685" y="-3" relative="1" as="geometry">
            <mxPoint x="-28" y="-18" as="offset" />
          </mxGeometry>
        </mxCell>
        <mxCell id="UpbluHdFZTf9e7w1jBb8-19" value="&lt;font color=&quot;#000000&quot;&gt;Booking System&lt;/font&gt;" style="rounded=0;whiteSpace=wrap;html=1;fillColor=none;fontColor=#ffffff;strokeColor=#000000;" parent="1" vertex="1">
          <mxGeometry x="1140" y="250" width="130" height="50" as="geometry" />
        </mxCell>
        <mxCell id="zNM9YORwCRKNAo-Sozhw-1" value="S3" style="sketch=0;points=[[0,0,0],[0.25,0,0],[0.5,0,0],[0.75,0,0],[1,0,0],[0,1,0],[0.25,1,0],[0.5,1,0],[0.75,1,0],[1,1,0],[0,0.25,0],[0,0.5,0],[0,0.75,0],[1,0.25,0],[1,0.5,0],[1,0.75,0]];outlineConnect=0;fontColor=#232F3E;fillColor=#7AA116;strokeColor=#ffffff;dashed=0;verticalLabelPosition=bottom;verticalAlign=top;align=center;html=1;fontSize=12;fontStyle=0;aspect=fixed;shape=mxgraph.aws4.resourceIcon;resIcon=mxgraph.aws4.s3;" vertex="1" parent="1">
          <mxGeometry x="114.5" y="580" width="44" height="44" as="geometry" />
        </mxCell>
        <mxCell id="zNM9YORwCRKNAo-Sozhw-2" value="Kinesis" style="sketch=0;points=[[0,0,0],[0.25,0,0],[0.5,0,0],[0.75,0,0],[1,0,0],[0,1,0],[0.25,1,0],[0.5,1,0],[0.75,1,0],[1,1,0],[0,0.25,0],[0,0.5,0],[0,0.75,0],[1,0.25,0],[1,0.5,0],[1,0.75,0]];outlineConnect=0;fontColor=#232F3E;fillColor=#8C4FFF;strokeColor=#ffffff;dashed=0;verticalLabelPosition=bottom;verticalAlign=top;align=center;html=1;fontSize=12;fontStyle=0;aspect=fixed;shape=mxgraph.aws4.resourceIcon;resIcon=mxgraph.aws4.kinesis;" vertex="1" parent="1">
          <mxGeometry x="100" y="141" width="40" height="40" as="geometry" />
        </mxCell>
        <mxCell id="zNM9YORwCRKNAo-Sozhw-3" value="&lt;div&gt;AWS Entity&lt;/div&gt;&lt;div&gt;Resolution&lt;/div&gt;" style="outlineConnect=0;dashed=0;verticalLabelPosition=bottom;verticalAlign=top;align=center;html=1;shape=mxgraph.aws3.machine_learning;fillColor=#2E73B8;gradientColor=none;" vertex="1" parent="1">
          <mxGeometry x="100" y="350" width="53" height="50" as="geometry" />
        </mxCell>
        <mxCell id="zNM9YORwCRKNAo-Sozhw-7" value="AWS Comprehend" style="sketch=0;points=[[0,0,0],[0.25,0,0],[0.5,0,0],[0.75,0,0],[1,0,0],[0,1,0],[0.25,1,0],[0.5,1,0],[0.75,1,0],[1,1,0],[0,0.25,0],[0,0.5,0],[0,0.75,0],[1,0.25,0],[1,0.5,0],[1,0.75,0]];outlineConnect=0;fontColor=#232F3E;fillColor=#01A88D;strokeColor=#ffffff;dashed=0;verticalLabelPosition=bottom;verticalAlign=top;align=center;html=1;fontSize=12;fontStyle=0;aspect=fixed;shape=mxgraph.aws4.resourceIcon;resIcon=mxgraph.aws4.comprehend;" vertex="1" parent="1">
          <mxGeometry x="210" y="577" width="46" height="46" as="geometry" />
        </mxCell>
        <mxCell id="zNM9YORwCRKNAo-Sozhw-9" value="Glue" style="sketch=0;points=[[0,0,0],[0.25,0,0],[0.5,0,0],[0.75,0,0],[1,0,0],[0,1,0],[0.25,1,0],[0.5,1,0],[0.75,1,0],[1,1,0],[0,0.25,0],[0,0.5,0],[0,0.75,0],[1,0.25,0],[1,0.5,0],[1,0.75,0]];outlineConnect=0;fontColor=#232F3E;fillColor=#8C4FFF;strokeColor=#ffffff;dashed=0;verticalLabelPosition=bottom;verticalAlign=top;align=center;html=1;fontSize=12;fontStyle=0;aspect=fixed;shape=mxgraph.aws4.resourceIcon;resIcon=mxgraph.aws4.glue;" vertex="1" parent="1">
          <mxGeometry x="110" y="490" width="53" height="53" as="geometry" />
        </mxCell>
        <mxCell id="zNM9YORwCRKNAo-Sozhw-10" value="Databrew" style="sketch=0;points=[[0,0,0],[0.25,0,0],[0.5,0,0],[0.75,0,0],[1,0,0],[0,1,0],[0.25,1,0],[0.5,1,0],[0.75,1,0],[1,1,0],[0,0.25,0],[0,0.5,0],[0,0.75,0],[1,0.25,0],[1,0.5,0],[1,0.75,0]];outlineConnect=0;fontColor=#232F3E;fillColor=#8C4FFF;strokeColor=#ffffff;dashed=0;verticalLabelPosition=bottom;verticalAlign=top;align=center;html=1;fontSize=12;fontStyle=0;aspect=fixed;shape=mxgraph.aws4.resourceIcon;resIcon=mxgraph.aws4.glue_databrew;" vertex="1" parent="1">
          <mxGeometry x="200" y="487" width="56" height="56" as="geometry" />
        </mxCell>
        <mxCell id="zNM9YORwCRKNAo-Sozhw-14" value="" style="rounded=0;whiteSpace=wrap;html=1;fillColor=none;fontColor=#ffffff;strokeColor=#000000;" vertex="1" parent="1">
          <mxGeometry x="81.5" y="340" width="110" height="100" as="geometry" />
        </mxCell>
        <mxCell id="zNM9YORwCRKNAo-Sozhw-11" value="s3" style="sketch=0;points=[[0,0,0],[0.25,0,0],[0.5,0,0],[0.75,0,0],[1,0,0],[0,1,0],[0.25,1,0],[0.5,1,0],[0.75,1,0],[1,1,0],[0,0.25,0],[0,0.5,0],[0,0.75,0],[1,0.25,0],[1,0.5,0],[1,0.75,0]];outlineConnect=0;fontColor=#232F3E;fillColor=#7AA116;strokeColor=#ffffff;dashed=0;verticalLabelPosition=bottom;verticalAlign=top;align=center;html=1;fontSize=12;fontStyle=0;aspect=fixed;shape=mxgraph.aws4.resourceIcon;resIcon=mxgraph.aws4.s3;" vertex="1" parent="1">
          <mxGeometry x="432" y="170" width="50" height="50" as="geometry" />
        </mxCell>
        <mxCell id="zNM9YORwCRKNAo-Sozhw-16" style="edgeStyle=orthogonalEdgeStyle;rounded=0;orthogonalLoop=1;jettySize=auto;html=1;entryX=0;entryY=0.5;entryDx=0;entryDy=0;entryPerimeter=0;" edge="1" parent="1" source="zNM9YORwCRKNAo-Sozhw-1" target="zNM9YORwCRKNAo-Sozhw-7">
          <mxGeometry relative="1" as="geometry" />
        </mxCell>
        <mxCell id="zNM9YORwCRKNAo-Sozhw-18" style="edgeStyle=orthogonalEdgeStyle;rounded=0;orthogonalLoop=1;jettySize=auto;html=1;entryX=0;entryY=0.5;entryDx=0;entryDy=0;entryPerimeter=0;" edge="1" parent="1" source="zNM9YORwCRKNAo-Sozhw-9" target="zNM9YORwCRKNAo-Sozhw-10">
          <mxGeometry relative="1" as="geometry" />
        </mxCell>
        <mxCell id="zNM9YORwCRKNAo-Sozhw-21" style="edgeStyle=orthogonalEdgeStyle;rounded=0;orthogonalLoop=1;jettySize=auto;html=1;entryX=-0.059;entryY=0.227;entryDx=0;entryDy=0;entryPerimeter=0;" edge="1" parent="1" source="xIBE9MmWSDMr6PMOZGod-22" target="xIBE9MmWSDMr6PMOZGod-13">
          <mxGeometry relative="1" as="geometry" />
        </mxCell>
        <mxCell id="zNM9YORwCRKNAo-Sozhw-24" style="edgeStyle=orthogonalEdgeStyle;rounded=0;orthogonalLoop=1;jettySize=auto;html=1;" edge="1" parent="1" source="zNM9YORwCRKNAo-Sozhw-8" target="xIBE9MmWSDMr6PMOZGod-13">
          <mxGeometry relative="1" as="geometry" />
        </mxCell>
        <mxCell id="zNM9YORwCRKNAo-Sozhw-27" value="" style="endArrow=classic;html=1;rounded=0;exitX=0.681;exitY=1.001;exitDx=0;exitDy=0;entryX=0.75;entryY=0;entryDx=0;entryDy=0;exitPerimeter=0;" edge="1" parent="1" source="xIBE9MmWSDMr6PMOZGod-22" target="zNM9YORwCRKNAo-Sozhw-8">
          <mxGeometry width="50" height="50" relative="1" as="geometry">
            <mxPoint x="570" y="260" as="sourcePoint" />
            <mxPoint x="620" y="210" as="targetPoint" />
          </mxGeometry>
        </mxCell>
        <mxCell id="zNM9YORwCRKNAo-Sozhw-28" value="Glue Data Caltalog" style="sketch=0;outlineConnect=0;fontColor=#232F3E;gradientColor=none;fillColor=#8C4FFF;strokeColor=none;dashed=0;verticalLabelPosition=bottom;verticalAlign=top;align=center;html=1;fontSize=12;fontStyle=0;aspect=fixed;pointerEvents=1;shape=mxgraph.aws4.glue_data_catalog;" vertex="1" parent="1">
          <mxGeometry x="428.39" y="264" width="33.23" height="36" as="geometry" />
        </mxCell>
        <mxCell id="zNM9YORwCRKNAo-Sozhw-29" value="Glue Data Crawler" style="sketch=0;outlineConnect=0;fontColor=#232F3E;gradientColor=none;fillColor=#8C4FFF;strokeColor=none;dashed=0;verticalLabelPosition=bottom;verticalAlign=top;align=center;html=1;fontSize=12;fontStyle=0;aspect=fixed;pointerEvents=1;shape=mxgraph.aws4.glue_crawlers;" vertex="1" parent="1">
          <mxGeometry x="426" y="370" width="48" height="48" as="geometry" />
        </mxCell>
        <mxCell id="zNM9YORwCRKNAo-Sozhw-30" value="Glue Data Quality" style="sketch=0;outlineConnect=0;fontColor=#232F3E;gradientColor=none;fillColor=#8C4FFF;strokeColor=none;dashed=0;verticalLabelPosition=bottom;verticalAlign=top;align=center;html=1;fontSize=12;fontStyle=0;aspect=fixed;pointerEvents=1;shape=mxgraph.aws4.aws_glue_data_quality;" vertex="1" parent="1">
          <mxGeometry x="428.39" y="460" width="53" height="53" as="geometry" />
        </mxCell>
        <mxCell id="zNM9YORwCRKNAo-Sozhw-32" value="" style="endArrow=classic;html=1;rounded=0;exitX=0.969;exitY=0.152;exitDx=0;exitDy=0;exitPerimeter=0;entryX=0;entryY=0.5;entryDx=0;entryDy=0;" edge="1" parent="1" source="xIBE9MmWSDMr6PMOZGod-13" target="zNM9YORwCRKNAo-Sozhw-31">
          <mxGeometry width="50" height="50" relative="1" as="geometry">
            <mxPoint x="546" y="198" as="sourcePoint" />
            <mxPoint x="835" y="275" as="targetPoint" />
          </mxGeometry>
        </mxCell>
        <mxCell id="zNM9YORwCRKNAo-Sozhw-31" value="" style="sketch=0;points=[[0,0,0],[0.25,0,0],[0.5,0,0],[0.75,0,0],[1,0,0],[0,1,0],[0.25,1,0],[0.5,1,0],[0.75,1,0],[1,1,0],[0,0.25,0],[0,0.5,0],[0,0.75,0],[1,0.25,0],[1,0.5,0],[1,0.75,0]];outlineConnect=0;fontColor=#232F3E;fillColor=#8C4FFF;strokeColor=#ffffff;dashed=0;verticalLabelPosition=bottom;verticalAlign=top;align=center;html=1;fontSize=12;fontStyle=0;aspect=fixed;shape=mxgraph.aws4.resourceIcon;resIcon=mxgraph.aws4.lake_formation;" vertex="1" parent="1">
          <mxGeometry x="490" y="170" width="54" height="54" as="geometry" />
        </mxCell>
        <mxCell id="zNM9YORwCRKNAo-Sozhw-33" value="" style="sketch=0;points=[[0,0,0],[0.25,0,0],[0.5,0,0],[0.75,0,0],[1,0,0],[0,1,0],[0.25,1,0],[0.5,1,0],[0.75,1,0],[1,1,0],[0,0.25,0],[0,0.5,0],[0,0.75,0],[1,0.25,0],[1,0.5,0],[1,0.75,0]];outlineConnect=0;fontColor=#232F3E;fillColor=#8C4FFF;strokeColor=#ffffff;dashed=0;verticalLabelPosition=bottom;verticalAlign=top;align=center;html=1;fontSize=12;fontStyle=0;aspect=fixed;shape=mxgraph.aws4.resourceIcon;resIcon=mxgraph.aws4.redshift;" vertex="1" parent="1">
          <mxGeometry x="426" y="-76" width="78" height="78" as="geometry" />
        </mxCell>
        <mxCell id="zNM9YORwCRKNAo-Sozhw-34" style="edgeStyle=orthogonalEdgeStyle;rounded=0;orthogonalLoop=1;jettySize=auto;html=1;entryX=0.379;entryY=0.892;entryDx=0;entryDy=0;entryPerimeter=0;" edge="1" parent="1" source="xIBE9MmWSDMr6PMOZGod-45" target="xIBE9MmWSDMr6PMOZGod-45">
          <mxGeometry relative="1" as="geometry" />
        </mxCell>
      </root>
    </mxGraphModel>
  </diagram>
</mxfile>
